<svg width="42.667" height="66.667" viewBox="0 0 32 50" xmlns="http://www.w3.org/2000/svg"><g fill="#fff"><path d="M0 25v25h2.5c3 0 3.1-.7.5-3.5L.9 44.3l9.6-8.7 9.5-8.8v-3.6l-9.5-8.8L.9 5.7 3 3.5C5.6.7 5.5 0 2.5 0H0v25z"/><path d="M6.2.8c.2.4 5.8 6 12.6 12.2C25.5 19.3 31 24.7 31 25c0 .3-5.5 5.7-12.2 12C12 43.2 6.4 48.8 6.2 49.2c-.2.4 5.5.8 12.7.8H32V0H18.9C11.7 0 6 .4 6.2.8z"/></g><path d="M2.2 2.3C-1 5.7-1 5.6 9.7 15.7l9.8 9.3-9.8 9.3C4.3 39.3 0 44 0 44.6 0 46 4.3 50 5.7 50 7.5 50 32 26.7 32 25 32 23.2 7.5 0 5.6 0c-.7 0-2.2 1-3.4 2.3z" fill="#e80606"/></svg>