<svg width="48" height="48" fill="none" xmlns="http://www.w3.org/2000/svg"><path d="M31.45 27.05l-2.2-2.2c.867-2.367.417-4.333-1.35-5.9-1.767-1.567-3.683-1.967-5.75-1.2l-2.2-2.2a6.044 6.044 0 011.9-.8c.7-.167 1.417-.25 2.15-.25 2.367 0 4.375.825 6.025 2.475 1.65 1.65 2.475 3.658 2.475 6.025 0 .733-.092 1.458-.275 2.175a6.596 6.596 0 01-.775 1.875zm6.45 6.45l-2-2a23.453 23.453 0 004.275-4.025C41.392 25.992 42.283 24.5 42.85 23c-1.667-3.7-4.167-6.625-7.5-8.775C32.017 12.075 28.4 11 24.5 11c-1.4 0-2.833.133-4.3.4-1.467.267-2.617.583-3.45.95L14.45 10c1.167-.533 2.658-1 4.475-1.4 1.817-.4 3.592-.6 5.325-.6 4.767 0 9.125 1.358 13.075 4.075C41.275 14.792 44.167 18.433 46 23a24.703 24.703 0 01-3.35 5.85 24.149 24.149 0 01-4.75 4.65zm2.9 11.3l-8.4-8.25c-1.167.467-2.483.825-3.95 1.075S25.5 38 24 38c-4.867 0-9.283-1.358-13.25-4.075C6.783 31.208 3.867 27.567 2 23c.667-1.733 1.592-3.425 2.775-5.075C5.958 16.275 7.4 14.7 9.1 13.2L2.8 6.9l2.1-2.15L42.75 42.6l-1.95 2.2zM11.15 15.3c-1.233.9-2.425 2.083-3.575 3.55C6.425 20.317 5.6 21.7 5.1 23c1.7 3.7 4.258 6.625 7.675 8.775C16.192 33.925 20.067 35 24.4 35c1.1 0 2.183-.067 3.25-.2 1.067-.133 1.867-.333 2.4-.6l-3.2-3.2c-.367.167-.817.292-1.35.375a9.749 9.749 0 01-1.5.125c-2.333 0-4.333-.817-6-2.45-1.667-1.633-2.5-3.65-2.5-6.05 0-.5.042-1 .125-1.5.083-.5.208-.95.375-1.35l-4.85-4.85z" fill="#AAA7BC"/></svg>