<svg width="48" height="48" fill="none" xmlns="http://www.w3.org/2000/svg"><path d="M24 31.5c2.367 0 4.375-.825 6.025-2.475 1.65-1.65 2.475-3.658 2.475-6.025 0-2.367-.825-4.375-2.475-6.025-1.65-1.65-3.658-2.475-6.025-2.475-2.367 0-4.375.825-6.025 2.475-1.65 1.65-2.475 3.658-2.475 6.025 0 2.367.825 4.375 2.475 6.025 1.65 1.65 3.658 2.475 6.025 2.475zm0-2.9c-1.567 0-2.892-.542-3.975-1.625C18.942 25.892 18.4 24.567 18.4 23c0-1.567.542-2.892 1.625-3.975C21.108 17.942 22.433 17.4 24 17.4c1.567 0 2.892.542 3.975 1.625C29.058 20.108 29.6 21.433 29.6 23c0 1.567-.542 2.892-1.625 3.975C26.892 28.058 25.567 28.6 24 28.6zm0 9.4c-4.867 0-9.267-1.383-13.2-4.15C6.867 31.083 3.933 27.467 2 23c1.933-4.467 4.867-8.083 8.8-10.85C14.733 9.383 19.133 8 24 8c4.867 0 9.267 1.383 13.2 4.15 3.933 2.767 6.867 6.383 8.8 10.85-1.933 4.467-4.867 8.083-8.8 10.85C33.267 36.617 28.867 38 24 38zm0-3c4.033 0 7.742-1.092 11.125-3.275S41.083 26.633 42.85 23c-1.767-3.633-4.342-6.542-7.725-8.725S28.033 11 24 11s-7.742 1.092-11.125 3.275S6.9 19.367 5.1 23c1.8 3.633 4.392 6.542 7.775 8.725S19.967 35 24 35z" fill="#AAA7BC"/></svg>