<svg width="42.667" height="66.667" viewBox="0 0 32 50" xmlns="http://www.w3.org/2000/svg"><g fill="#fff"><path d="M0 25v25h26v-.9c0-.5-5.4-5.8-12-11.7L2 26.7v-3.4l12-10.7C20.6 6.7 26 1.4 26 .9V0H0v25z"/><path d="M27 .7c0 .4.9 1.6 2 2.8l2.1 2.2-9.6 9.1C16.3 19.7 12 24.3 12 25c0 .7 4.3 5.3 9.5 10.2l9.6 9.1-2.1 2.2c-1.1 1.2-2 2.4-2 2.8 0 .4 1.1.7 2.5.7H32V0h-2.5c-1.4 0-2.5.3-2.5.7z"/></g><path d="M13.6 10.9C7.1 16.9 1.3 22.4.9 23.3c-.5.8-.7 2.2-.3 3C1.2 28 25.5 50 26.8 50c1.2 0 5.2-4.4 5.2-5.7 0-.6-4.3-5.2-9.6-10.2L12.8 25l9.6-9.1c5.3-5 9.6-9.6 9.6-10.3C32 4.1 27.8 0 26.4.1c-.5 0-6.2 4.9-12.8 10.8z" fill="#e80606"/></svg>